<mxfile host="app.diagrams.net" modified="2022-12-25T12:50:59.885Z" agent="5.0 (Macintosh; Intel Mac OS X 10_15_7) AppleWebKit/537.36 (KHTML, like Gecko) Chrome/104.0.5112.87 Whale/3.16.138.22 Safari/537.36" etag="qwkUP5A4ycNJOtUXyLrT" version="20.7.4" type="github">
  <diagram id="ChvxJNr-lPXWG5OpoFq4" name="페이지-1">
    <mxGraphModel dx="538" dy="1011" grid="1" gridSize="10" guides="1" tooltips="1" connect="1" arrows="1" fold="1" page="1" pageScale="1" pageWidth="827" pageHeight="1169" math="0" shadow="0">
      <root>
        <mxCell id="0" />
        <mxCell id="1" parent="0" />
        <mxCell id="H8PRDeBtsVb3ZzNapuMt-2" value="&lt;font style=&quot;font-size: 15px;&quot;&gt;A Topic&lt;br&gt;(KStream)&lt;/font&gt;" style="swimlane;whiteSpace=wrap;html=1;startSize=40;" parent="1" vertex="1">
          <mxGeometry x="100" y="280" width="140" height="130" as="geometry" />
        </mxCell>
        <mxCell id="H8PRDeBtsVb3ZzNapuMt-3" value="Partition 0" style="rounded=0;whiteSpace=wrap;html=1;fontSize=15;" parent="H8PRDeBtsVb3ZzNapuMt-2" vertex="1">
          <mxGeometry x="10" y="50" width="120" height="30" as="geometry" />
        </mxCell>
        <mxCell id="H8PRDeBtsVb3ZzNapuMt-4" value="Partition 1" style="rounded=0;whiteSpace=wrap;html=1;fontSize=15;" parent="H8PRDeBtsVb3ZzNapuMt-2" vertex="1">
          <mxGeometry x="10" y="90" width="120" height="30" as="geometry" />
        </mxCell>
        <mxCell id="H8PRDeBtsVb3ZzNapuMt-5" value="&lt;font style=&quot;font-size: 15px;&quot;&gt;B Topic&lt;br&gt;(GlobalKTable)&lt;/font&gt;" style="swimlane;whiteSpace=wrap;html=1;startSize=40;" parent="1" vertex="1">
          <mxGeometry x="100" y="430" width="140" height="170" as="geometry" />
        </mxCell>
        <mxCell id="H8PRDeBtsVb3ZzNapuMt-6" value="Partition 0" style="rounded=0;whiteSpace=wrap;html=1;fontSize=15;" parent="H8PRDeBtsVb3ZzNapuMt-5" vertex="1">
          <mxGeometry x="10" y="50" width="120" height="30" as="geometry" />
        </mxCell>
        <mxCell id="H8PRDeBtsVb3ZzNapuMt-7" value="Partition 1" style="rounded=0;whiteSpace=wrap;html=1;fontSize=15;" parent="H8PRDeBtsVb3ZzNapuMt-5" vertex="1">
          <mxGeometry x="10" y="90" width="120" height="30" as="geometry" />
        </mxCell>
        <mxCell id="H8PRDeBtsVb3ZzNapuMt-8" value="Partition 2" style="rounded=0;whiteSpace=wrap;html=1;fontSize=15;" parent="H8PRDeBtsVb3ZzNapuMt-5" vertex="1">
          <mxGeometry x="10" y="130" width="120" height="30" as="geometry" />
        </mxCell>
        <mxCell id="H8PRDeBtsVb3ZzNapuMt-9" value="&lt;span style=&quot;font-size: 15px;&quot;&gt;Streams Application&lt;/span&gt;" style="swimlane;whiteSpace=wrap;html=1;startSize=40;" parent="1" vertex="1">
          <mxGeometry x="320" y="330" width="160" height="190" as="geometry" />
        </mxCell>
        <mxCell id="H8PRDeBtsVb3ZzNapuMt-12" value="" style="rounded=0;whiteSpace=wrap;html=1;fontSize=15;" parent="H8PRDeBtsVb3ZzNapuMt-9" vertex="1">
          <mxGeometry x="10" y="50" width="140" height="130" as="geometry" />
        </mxCell>
        <mxCell id="H8PRDeBtsVb3ZzNapuMt-10" value="Task 0" style="rounded=0;whiteSpace=wrap;html=1;fontSize=15;" parent="H8PRDeBtsVb3ZzNapuMt-9" vertex="1">
          <mxGeometry x="20" y="100" width="120" height="30" as="geometry" />
        </mxCell>
        <mxCell id="H8PRDeBtsVb3ZzNapuMt-11" value="Task 1" style="rounded=0;whiteSpace=wrap;html=1;fontSize=15;" parent="H8PRDeBtsVb3ZzNapuMt-9" vertex="1">
          <mxGeometry x="20" y="140" width="120" height="30" as="geometry" />
        </mxCell>
        <mxCell id="H8PRDeBtsVb3ZzNapuMt-13" value="Thread" style="text;html=1;strokeColor=none;fillColor=none;align=center;verticalAlign=middle;whiteSpace=wrap;rounded=0;fontSize=15;" parent="H8PRDeBtsVb3ZzNapuMt-9" vertex="1">
          <mxGeometry x="50" y="60" width="60" height="30" as="geometry" />
        </mxCell>
        <mxCell id="H8PRDeBtsVb3ZzNapuMt-14" value="" style="endArrow=classic;html=1;rounded=0;fontSize=15;strokeWidth=3;exitX=1;exitY=0.5;exitDx=0;exitDy=0;entryX=0;entryY=0;entryDx=0;entryDy=0;" parent="1" source="H8PRDeBtsVb3ZzNapuMt-3" target="H8PRDeBtsVb3ZzNapuMt-10" edge="1">
          <mxGeometry width="50" height="50" relative="1" as="geometry">
            <mxPoint x="280" y="520" as="sourcePoint" />
            <mxPoint x="330" y="470" as="targetPoint" />
          </mxGeometry>
        </mxCell>
        <mxCell id="H8PRDeBtsVb3ZzNapuMt-16" value="" style="endArrow=classic;html=1;rounded=0;fontSize=15;strokeWidth=3;exitX=1;exitY=0.5;exitDx=0;exitDy=0;entryX=0;entryY=0;entryDx=0;entryDy=0;entryPerimeter=0;" parent="1" source="H8PRDeBtsVb3ZzNapuMt-4" target="H8PRDeBtsVb3ZzNapuMt-11" edge="1">
          <mxGeometry width="50" height="50" relative="1" as="geometry">
            <mxPoint x="240" y="382.5" as="sourcePoint" />
            <mxPoint x="350.0000000000001" y="467.5" as="targetPoint" />
          </mxGeometry>
        </mxCell>
        <mxCell id="H8PRDeBtsVb3ZzNapuMt-17" value="" style="endArrow=classic;html=1;rounded=0;fontSize=15;strokeWidth=3;entryX=0;entryY=0.5;entryDx=0;entryDy=0;" parent="1" target="H8PRDeBtsVb3ZzNapuMt-10" edge="1">
          <mxGeometry width="50" height="50" relative="1" as="geometry">
            <mxPoint x="240" y="510" as="sourcePoint" />
            <mxPoint x="370" y="585" as="targetPoint" />
          </mxGeometry>
        </mxCell>
        <mxCell id="H8PRDeBtsVb3ZzNapuMt-18" value="" style="endArrow=classic;html=1;rounded=0;fontSize=15;strokeWidth=3;exitX=1;exitY=0.5;exitDx=0;exitDy=0;entryX=0;entryY=0.5;entryDx=0;entryDy=0;" parent="1" source="H8PRDeBtsVb3ZzNapuMt-5" target="H8PRDeBtsVb3ZzNapuMt-11" edge="1">
          <mxGeometry width="50" height="50" relative="1" as="geometry">
            <mxPoint x="270" y="570" as="sourcePoint" />
            <mxPoint x="380" y="520" as="targetPoint" />
          </mxGeometry>
        </mxCell>
      </root>
    </mxGraphModel>
  </diagram>
</mxfile>
